# Blender v2.93.0 OBJ File: 'Boat_0.blend'
# www.blender.org
o Circle
v 0.450000 -0.445050 1.500000
v 0.000000 -0.637660 1.500000
v -0.450000 -0.445050 1.500000
v -0.834541 0.800000 -0.000000
v -0.866025 0.050000 0.000000
v -0.500000 -0.499038 -0.000000
v 0.000000 -0.700000 0.000000
v 0.500000 -0.499038 -0.000000
v 0.866025 0.050000 -0.000000
v 0.834541 0.800000 0.000000
v -0.779423 0.081170 1.500000
v -0.736473 0.800000 1.471022
v 0.779423 0.081170 1.500000
v 0.736473 0.800000 1.471022
v 0.303946 -0.196040 2.500000
v 0.000000 -0.350128 2.500000
v -0.303946 -0.196040 2.500000
v -0.526450 0.224936 2.500000
v -0.455105 0.800000 2.434255
v 0.526450 0.224936 2.500000
v 0.455105 0.800000 2.434255
v 0.157967 0.190005 3.000000
v 0.000000 0.095638 3.000000
v -0.157967 0.190005 3.000000
v -0.273607 0.447819 3.000000
v -0.193648 0.800000 2.882021
v 0.273607 0.447819 3.000000
v 0.193648 0.800000 2.882021
v 0.735551 0.800000 -1.484850
v 0.779423 0.075729 -1.500000
v -0.735551 0.800000 -1.484850
v -0.779423 0.075729 -1.500000
v -0.450000 -0.454474 -1.500000
v 0.000000 -0.648542 -1.500000
v 0.450000 -0.454474 -1.500000
v 0.600188 0.800000 -2.634907
v 0.646912 0.123614 -2.700000
v -0.600188 0.800000 -2.634907
v -0.646912 0.123614 -2.700000
v -0.373495 -0.371535 -2.500000
v 0.000000 -0.552772 -2.300000
v 0.373495 -0.371535 -2.500000
v -1.000000 0.800000 -0.000000
v -0.900000 0.800000 1.500000
v 0.900000 0.800000 1.500000
v 1.000000 0.800000 0.000000
v 0.607892 0.800000 2.500000
v -0.607892 0.800000 2.500000
v -0.315934 0.800000 3.000000
v 0.315934 0.800000 3.000000
v 0.000000 0.800000 3.200000
v 0.900000 0.800000 -1.500000
v -0.900000 0.800000 -1.500000
v 0.746989 0.800000 -2.800000
v -0.746989 0.800000 -2.800000
v -0.540461 -0.106153 -0.000000
v 0.540461 -0.106153 0.000000
v -0.461802 -0.106153 1.471022
v 0.461802 -0.106153 1.471022
v -0.270436 -0.106153 2.282260
v 0.270436 -0.106153 2.282260
v 0.444113 -0.106153 -1.484850
v -0.444113 -0.106153 -1.484850
v 0.362383 -0.106153 -2.434907
v -0.362383 -0.106153 -2.434907
v -0.736510 0.485046 0.230362
v -0.795869 0.670186 0.230362
v 0.736510 0.485046 0.230362
v 0.795869 0.670186 0.230362
v -0.795869 0.670186 -0.269638
v 0.795869 0.670186 -0.269638
v -0.736510 0.485046 -0.269638
v 0.736510 0.485046 -0.269638
v -0.671441 0.485046 -2.253370
v -0.725556 0.670186 -2.253370
v 0.671441 0.485046 -2.253370
v 0.725556 0.670186 -2.253370
v -0.725556 0.670186 -1.753370
v 0.725556 0.670186 -1.753370
v -0.671441 0.485046 -1.753370
v 0.671441 0.485046 -1.753370
v 0.000000 -0.106153 2.547467
v 0.000000 0.800000 2.995233
vt 0.366410 0.261703
vt 0.303934 0.438834
vt 0.369516 0.437547
vt 1.369516 0.437547
vt 1.438953 0.259273
vt 1.448321 0.435317
vt 0.438953 0.259273
vt 0.448320 0.435317
vt 1.303934 0.438834
vt 1.366410 0.261703
vt 1.526687 0.249207
vt 1.539764 0.432093
vt 0.526687 0.249207
vt 0.539764 0.432093
vt 1.339019 0.136414
vt 1.309375 0.257477
vt 0.378393 0.144236
vt 0.432559 0.139951
vt 1.378393 0.144235
vt 0.339019 0.136414
vt 0.309375 0.257478
vt 1.432559 0.139951
vt 0.403992 0.076037
vt 1.403993 0.076036
vt 0.383276 0.068738
vt 1.435597 0.071762
vt 1.499613 0.123956
vt 1.383276 0.068738
vt 0.499613 0.123956
vt 0.435597 0.071762
vt 0.452684 0.016551
vt 1.452684 0.016551
vt 1.474623 0.057330
vt 0.474623 0.057330
vt 1.539764 0.615983
vt 1.374587 0.617329
vt 0.450090 0.615559
vt 0.374587 0.617329
vt 1.450090 0.615559
vt 0.315363 0.621229
vt 0.539764 0.615983
vt 1.380578 0.739681
vt 0.450599 0.762753
vt 0.534225 0.776390
vt 1.327664 0.719285
vt 1.315363 0.621228
vt 0.380578 0.739681
vt 0.327664 0.719285
vt 1.450599 0.762753
vt 0.098319 0.996366
vt 0.051186 0.957280
vt 0.150224 0.963883
vt 0.019656 0.884062
vt 0.191194 0.895498
vt 0.967088 0.651646
vt 0.850172 0.443473
vt 0.978806 0.443152
vt 0.051576 0.226357
vt 0.003634 0.419059
vt 0.030151 0.221069
vt 0.246862 0.239376
vt 0.268799 0.436737
vt 0.246862 0.435274
vt 0.218072 0.109181
vt 0.268799 0.236979
vt 0.097394 0.101136
vt 0.077718 0.091069
vt 0.136016 0.044081
vt 0.120846 0.027358
vt 0.187365 0.047504
vt 0.238910 0.101815
vt 0.817526 0.159889
vt 0.722988 0.253574
vt 0.754099 0.160943
vt 0.820512 0.776051
vt 0.711853 0.640440
vt 0.834263 0.643589
vt 0.242283 0.634726
vt 0.220614 0.631264
vt 0.025571 0.420522
vt 0.003634 0.618816
vt 0.192502 0.782545
vt 0.210506 0.805731
vt 0.033353 0.771935
vt 0.025571 0.618261
vt 0.012430 0.792526
vt 0.965650 0.238061
vt 0.924009 0.100334
vt 0.579456 0.641633
vt 0.718522 0.772982
vt 0.587830 0.803708
vt 0.600959 0.231919
vt 0.705889 0.440602
vt 0.578297 0.434129
vt 0.841250 0.255221
vt 0.881274 0.034543
vt 0.689915 0.034243
vt 0.646902 0.098671
vt 0.162691 0.030783
vt 0.164501 0.003634
vt 0.784937 0.126940
vt 0.710984 0.012572
vt 0.681128 0.902558
vt 0.541165 0.816335
vt 0.520466 0.987660
vt 0.520466 0.822972
vt 0.464565 0.822972
vt 0.464565 0.987660
vt 0.597066 0.994296
vt 0.597066 0.816336
vt 0.324431 0.820933
vt 0.303731 0.977121
vt 0.303731 0.826983
vt 0.617765 0.987660
vt 0.617765 0.822972
vt 0.380332 0.983171
vt 0.401031 0.826983
vt 0.401031 0.977121
vt 0.380332 0.820933
vt 0.247830 0.826983
vt 0.247830 0.977121
vt 0.860274 0.012572
vt 0.204621 0.032943
vt 1.534225 0.776390
vt 0.950037 0.813861
vt 0.850046 0.907641
vt 0.541165 0.994296
vt 0.324430 0.983171
vn 0.6406 -0.7525 0.1532
vn 0.3773 -0.9261 0.0030
vn 0.6344 -0.7730 0.0021
vn -0.6344 -0.7730 0.0021
vn -0.9230 -0.3502 0.1593
vn -0.9286 -0.3712 0.0005
vn 0.9230 -0.3502 0.1593
vn 0.9286 -0.3712 0.0005
vn -0.3773 -0.9261 0.0030
vn -0.6406 -0.7525 0.1532
vn -0.9732 -0.1609 0.1641
vn -0.9844 -0.1758 0.0000
vn 0.9732 -0.1609 0.1641
vn 0.9844 -0.1758 0.0000
vn -0.3995 -0.8099 0.4295
vn -0.3894 -0.9098 0.1433
vn 0.6205 -0.6510 0.4372
vn 0.8714 -0.2879 0.3973
vn -0.6205 -0.6510 0.4372
vn 0.3995 -0.8099 0.4295
vn 0.3894 -0.9098 0.1433
vn -0.8714 -0.2879 0.3973
vn 0.4797 -0.4119 0.7748
vn -0.4797 -0.4119 0.7748
vn 0.3181 -0.5517 0.7710
vn -0.6751 -0.1898 0.7129
vn -0.9142 -0.1263 0.3851
vn -0.3181 -0.5517 0.7710
vn 0.9142 -0.1263 0.3851
vn 0.6751 -0.1898 0.7129
vn 0.4437 -0.1338 0.8861
vn -0.4437 -0.1338 0.8861
vn -0.7254 -0.0872 0.6828
vn 0.7254 -0.0872 0.6828
vn -0.9823 -0.1652 -0.0879
vn -0.6491 -0.7569 -0.0764
vn 0.9319 -0.3528 -0.0843
vn 0.6491 -0.7569 -0.0764
vn -0.9319 -0.3528 -0.0843
vn 0.3950 -0.9160 -0.0697
vn 0.9823 -0.1652 -0.0879
vn -0.7076 -0.6972 -0.1151
vn 0.9417 -0.3156 -0.1168
vn 0.9800 -0.1621 -0.1153
vn -0.3894 -0.9149 -0.1066
vn -0.3950 -0.9160 -0.0697
vn 0.7076 -0.6972 -0.1151
vn 0.3894 -0.9149 -0.1066
vn -0.9417 -0.3156 -0.1168
vn 0.0000 -0.7410 -0.6715
vn 0.0000 -0.4689 -0.8833
vn -0.0000 -0.2369 -0.9715
vn -0.9511 0.2987 0.0793
vn -0.9524 0.3049 0.0020
vn -0.9512 0.3087 -0.0000
vn -0.0000 1.0000 0.0000
vn -0.0000 -0.1463 -0.9892
vn -0.9485 0.2791 -0.1495
vn -0.8456 0.3082 -0.4359
vn -0.8883 0.2461 -0.3879
vn 0.9511 0.2987 0.0793
vn 0.9524 0.2885 0.0989
vn 0.9548 0.2754 0.1124
vn 0.9485 0.2791 -0.1495
vn 0.9524 0.3049 0.0020
vn 0.9512 0.3087 -0.0000
vn 0.9495 0.3054 0.0718
vn 0.8456 0.3082 -0.4359
vn 0.9478 0.2873 -0.1383
vn -0.9478 0.2873 -0.1383
vn -0.9524 0.2885 0.0989
vn -0.9495 0.3054 0.0718
vn -0.6330 0.3516 -0.6897
vn 0.6330 0.3516 -0.6897
vn 0.8883 0.2461 -0.3879
vn 0.6272 0.3842 -0.6776
vn 0.4642 0.3924 -0.7941
vn -0.0000 0.2155 0.9765
vn 0.0000 0.0000 1.0000
vn 0.0000 -1.0000 0.0000
vn 0.0000 0.0000 -1.0000
vn -0.6272 0.3842 -0.6776
vn -0.4642 0.3924 -0.7941
vn -0.9800 -0.1621 -0.1153
vn -0.9548 0.2754 0.1124
s 1
f 1/1/1 7/2/2 8/3/3
f 6/4/4 11/5/5 5/6/6
f 13/7/7 8/3/3 9/8/8
f 7/9/9 3/10/10 6/4/4
f 5/6/6 44/11/11 43/12/12
f 45/13/13 9/8/8 46/14/14
f 16/15/15 3/10/10 2/16/16
f 13/7/7 15/17/17 1/1/1
f 45/13/13 20/18/18 13/7/7
f 17/19/19 11/5/5 3/10/10
f 1/1/1 16/20/20 2/21/21
f 18/22/22 44/11/11 11/5/5
f 20/18/18 22/23/23 15/17/17
f 24/24/24 18/22/22 17/19/19
f 15/17/17 23/25/25 16/20/20
f 25/26/26 48/27/27 18/22/22
f 23/28/28 17/19/19 16/15/15
f 47/29/29 27/30/30 20/18/18
f 27/30/30 51/31/31 22/23/23
f 24/24/24 51/32/32 25/26/26
f 22/23/23 51/31/31 23/25/25
f 25/26/26 51/32/32 49/33/33
f 23/28/28 51/32/32 24/24/24
f 50/34/34 51/31/31 27/30/30
f 53/35/35 5/6/6 43/12/12
f 33/36/36 7/9/9 6/4/4
f 30/37/37 8/3/3 35/38/38
f 32/39/39 6/4/4 5/6/6
f 35/38/38 7/2/2 34/40/40
f 52/41/41 9/8/8 30/37/37
f 32/39/39 40/42/42 33/36/36
f 52/41/41 37/43/43 54/44/44
f 33/36/36 41/45/45 34/46/46
f 30/37/37 42/47/47 37/43/43
f 35/38/38 41/48/48 42/47/47
f 53/35/35 39/49/49 32/39/39
f 41/50/50 40/51/51 42/52/51
f 42/52/51 39/53/52 37/54/52
f 29/55/53 57/56/54 10/57/55
f 12/58/56 43/59/56 44/60/56
f 14/61/56 46/62/56 10/63/56
f 21/64/56 45/65/56 14/61/56
f 19/66/56 44/60/56 48/67/56
f 26/68/56 48/67/56 49/69/56
f 28/70/56 47/71/56 21/64/56
f 61/72/56 58/73/56 60/74/56
f 64/75/56 63/76/56 62/77/56
f 10/63/56 52/78/56 29/79/56
f 4/80/56 53/81/56 43/59/56
f 36/82/56 52/78/56 54/83/56
f 38/84/56 53/81/56 31/85/56
f 55/86/57 37/54/52 39/53/52
f 14/87/58 61/72/59 21/88/60
f 31/89/61 65/90/62 38/91/63
f 12/92/64 56/93/65 4/94/66
f 31/89/61 56/93/65 63/76/67
f 12/92/64 60/74/68 58/73/69
f 14/87/58 57/56/54 59/95/70
f 29/55/53 64/75/71 62/77/72
f 21/88/60 61/72/59 28/96/73
f 26/97/74 60/74/68 19/98/75
f 36/82/56 55/86/56 38/84/56
f 83/99/56 49/69/56 51/100/56
f 82/101/76 26/97/74 83/102/77
f 64/75/78 38/103/78 65/90/78
f 61/72/56 60/74/56 82/101/56
f 57/56/56 58/73/56 59/95/56
f 62/77/56 56/93/56 57/56/56
f 69/104/79 66/105/79 68/106/79
f 73/107/80 66/105/80 72/108/80
f 70/109/56 69/104/56 71/110/56
f 79/111/79 80/112/79 81/113/79
f 72/114/81 71/110/81 73/115/81
f 75/116/81 76/117/81 74/118/81
f 75/116/56 79/111/56 77/119/56
f 76/120/80 80/112/80 74/121/80
f 28/96/73 82/101/82 83/122/83
f 83/99/56 50/123/56 28/70/56
f 1/1/1 2/21/21 7/2/2
f 6/4/4 3/10/10 11/5/5
f 13/7/7 1/1/1 8/3/3
f 7/9/9 2/16/16 3/10/10
f 5/6/6 11/5/5 44/11/11
f 45/13/13 13/7/7 9/8/8
f 16/15/15 17/19/19 3/10/10
f 13/7/7 20/18/18 15/17/17
f 45/13/13 47/29/29 20/18/18
f 17/19/19 18/22/22 11/5/5
f 1/1/1 15/17/17 16/20/20
f 18/22/22 48/27/27 44/11/11
f 20/18/18 27/30/30 22/23/23
f 24/24/24 25/26/26 18/22/22
f 15/17/17 22/23/23 23/25/25
f 25/26/26 49/33/33 48/27/27
f 23/28/28 24/24/24 17/19/19
f 47/29/29 50/34/34 27/30/30
f 53/35/35 32/39/39 5/6/6
f 33/36/36 34/46/46 7/9/9
f 30/37/37 9/8/8 8/3/3
f 32/39/39 33/36/36 6/4/4
f 35/38/38 8/3/3 7/2/2
f 52/41/41 46/14/14 9/8/8
f 32/39/39 39/49/49 40/42/42
f 52/41/41 30/37/37 37/43/43
f 33/36/36 40/42/42 41/45/45
f 30/37/37 35/38/38 42/47/47
f 35/38/38 34/40/40 41/48/48
f 53/35/35 55/124/84 39/49/49
f 42/52/51 40/51/51 39/53/52
f 29/55/53 62/77/72 57/56/54
f 12/58/56 4/80/56 43/59/56
f 14/61/56 45/65/56 46/62/56
f 21/64/56 47/71/56 45/65/56
f 19/66/56 12/58/56 44/60/56
f 26/68/56 19/66/56 48/67/56
f 28/70/56 50/123/56 47/71/56
f 61/72/56 59/95/56 58/73/56
f 64/75/56 65/90/56 63/76/56
f 10/63/56 46/62/56 52/78/56
f 4/80/56 31/85/56 53/81/56
f 36/82/56 29/79/56 52/78/56
f 38/84/56 55/86/56 53/81/56
f 55/86/57 54/83/57 37/54/52
f 14/87/58 59/95/70 61/72/59
f 31/89/61 63/76/67 65/90/62
f 12/92/64 58/73/69 56/93/65
f 31/89/61 4/94/66 56/93/65
f 12/92/64 19/98/75 60/74/68
f 14/87/58 10/57/55 57/56/54
f 29/55/53 36/125/85 64/75/71
f 36/82/56 54/83/56 55/86/56
f 83/99/56 26/68/56 49/69/56
f 82/101/76 60/74/68 26/97/74
f 64/75/78 36/126/78 38/103/78
f 57/56/56 56/93/56 58/73/56
f 62/77/56 63/76/56 56/93/56
f 69/104/79 67/127/79 66/105/79
f 73/107/80 68/106/80 66/105/80
f 70/109/56 67/127/56 69/104/56
f 79/111/79 78/128/79 80/112/79
f 72/114/81 70/109/81 71/110/81
f 75/116/81 77/119/81 76/117/81
f 75/116/56 78/128/56 79/111/56
f 76/120/80 81/113/80 80/112/80
f 28/96/73 61/72/59 82/101/82
f 83/99/56 51/100/56 50/123/56
